
'##::::'##::::'###::::'##::: ##:'##::::'##:'########::'####:'########:
 ###::'###:::'## ##::: ###:: ##: ##:::: ##: ##.... ##:. ##:: ##.....::
 ####'####::'##:. ##:: ####: ##: ##:::: ##: ##:::: ##:: ##:: ##:::::::
 ## ### ##:'##:::. ##: ## ## ##: ##:::: ##: ########::: ##:: ######:::
 ##. #: ##: #########: ##. ####: ##:::: ##: ##.. ##:::: ##:: ##...::::
 ##:.:: ##: ##.... ##: ##:. ###: ##:::: ##: ##::. ##::: ##:: ##:::::::
 ##:::: ##: ##:::: ##: ##::. ##:. #######:: ##:::. ##:'####: ########:
..:::::..::..:::::..::..::::..:::.......:::..:::::..::....::........::


Format                           : Matroska
File size                        : 735 MiB
Duration                         : 49mn 5s
Overall bit rate                 : 2 093 Kbps
Encoded date                     : UTC 2011-06-09 22:53:15
Writing application              : mkvmerge v3.0.0 ('Hang up your Hang-Ups') built on Dec 15 2009 20:49:37
Writing library                  : libebml v0.7.9 + libmatroska v0.8.1

Video
ID                               : 1
Format                           : AVC
Format/Info                      : Advanced Video Codec
Format profile                   : High@L3.1
Format settings, CABAC           : Yes
Format settings, ReFrames        : 8 frames
Codec ID                         : V_MPEG4/ISO/AVC
Duration                         : 49mn 5s
Bit rate                         : 1 900 Kbps
Width                            : 720 pixels
Height                           : 408 pixels
Display aspect ratio             : 16:9
Frame rate                       : 23.976 fps
Color space                      : YUV
Chroma subsampling               : 4:2:0
Bit depth                        : 8 bits
Scan type                        : Progressive
Bits/(Pixel*Frame)               : 0.270
Stream size                      : 653 MiB (89%)
Writing library                  : x264 core 79 r1342kMod e8501ef
Encoding settings                : cabac=1 / ref=8 / deblock=1:0:0 / analyse=0x3:0x133 / me=umh / subme=9 / psy=1 / psy_rd=1.0:0.0 / mixed_ref=1 / me_range=16 / chroma_me=1 / trellis=2 / 8x8dct=1 / cqm=0 / deadzone=21,11 / chroma_qp_offset=-2 / threads=3 / nr=0 / decimate=1 / mbaff=0 / constrained_intra=0 / bframes=3 / b_pyramid=0 / b_adapt=2 / b_bias=0 / direct=3 / wpredb=1 / wpredp=2 / keyint=250 / keyint_min=25 / scenecut=40 / rc_lookahead=40 / rc=2pass / mbtree=1 / bitrate=1900 / ratetol=1.0 / qcomp=0.60 / qpmin=10 / qpmax=51 / qpstep=4 / cplxblur=20.0 / qblur=0.5 / ip_ratio=1.40 / aq=1:1.00

Audio
ID                               : 2
Format                           : AC-3
Format/Info                      : Audio Coding 3
Mode extension                   : CM (complete main)
Codec ID                         : A_AC3
Duration                         : 49mn 5s
Bit rate mode                    : Constant
Bit rate                         : 192 Kbps
Channel(s)                       : 2 channels
Channel positions                : Front: L R
Sampling rate                    : 48.0 KHz
Bit depth                        : 16 bits
Stream size                      : 67.4 MiB (9%)


SEED YOU GUYS..

-manurie